HIERARCHY
ROOT Hips
{
	OFFSET 0.000000 0.000000 0.000000
	CHANNELS 6 Xposition Yposition Zposition Zrotation Yrotation Xrotation 
	JOINT LHipJoint
	{
		OFFSET 0.000000 0.000000 0.000000
		CHANNELS 3 Zrotation Yrotation Xrotation
		JOINT LeftUpLeg
		{
			OFFSET 1.363060 -1.794630 0.839290
			CHANNELS 3 Zrotation Yrotation Xrotation
			JOINT LeftLeg
			{
				OFFSET 2.448110 -6.726130 0.000000
				CHANNELS 3 Zrotation Yrotation Xrotation
				JOINT LeftFoot
				{
					OFFSET 2.562200 -7.039590 0.000000
					CHANNELS 3 Zrotation Yrotation Xrotation
					JOINT LeftToeBase
					{
						OFFSET 0.157640 -0.433110 2.322550
						CHANNELS 3 Zrotation Yrotation Xrotation
						End Site
						{
							OFFSET 0.000000 0.000000 0.000000
						}
					}
				}
			}
		}
	}
	JOINT RHipJoint
	{
		OFFSET 0.000000 0.000000 0.000000
		CHANNELS 3 Zrotation Yrotation Xrotation
		JOINT RightUpLeg
		{
			OFFSET -1.305520 -1.794630 0.839290
			CHANNELS 3 Zrotation Yrotation Xrotation
			JOINT RightLeg
			{
				OFFSET -2.542530 -6.985550 0.000000
				CHANNELS 3 Zrotation Yrotation Xrotation
				JOINT RightFoot
				{
					OFFSET -2.568260 -7.056230 0.000000
					CHANNELS 3 Zrotation Yrotation Xrotation
					JOINT RightToeBase
					{
						OFFSET -0.164730 -0.452590 2.363150
						CHANNELS 3 Zrotation Yrotation Xrotation
						End Site
						{
							OFFSET 0.000000 0.000000 0.000000
						}
					}
				}
			}
		}
	}
	JOINT LowerBack
	{
		OFFSET 0.000000 0.000000 0.000000
		CHANNELS 3 Zrotation Yrotation Xrotation
		JOINT Spine
		{
			OFFSET 0.028270 2.035590 -0.193380
			CHANNELS 3 Zrotation Yrotation Xrotation
			JOINT Spine1
			{
				OFFSET 0.056720 2.048850 -0.042750
				CHANNELS 3 Zrotation Yrotation Xrotation
				JOINT Neck
				{
					OFFSET 0.000000 0.000000 0.000000
					CHANNELS 3 Zrotation Yrotation Xrotation
					JOINT Neck1
					{
						OFFSET -0.054170 1.746240 0.172020
						CHANNELS 3 Zrotation Yrotation Xrotation
						JOINT Head
						{
							OFFSET 0.104070 1.761360 -0.123970
							CHANNELS 3 Zrotation Yrotation Xrotation
							End Site
							{
								OFFSET 0.000000 0.000000 0.000000
							}
						}
					}
				}
				JOINT LeftShoulder
				{
					OFFSET 0.000000 0.000000 0.000000
					CHANNELS 3 Zrotation Yrotation Xrotation
					JOINT LeftArm
					{
						OFFSET 3.362410 1.200890 -0.311210
						CHANNELS 3 Zrotation Yrotation Xrotation
						JOINT LeftForeArm
						{
							OFFSET 4.983000 -0.000000 -0.000000
							CHANNELS 3 Zrotation Yrotation Xrotation
							JOINT LeftHand
							{
								OFFSET 3.483560 -0.000000 -0.000000
								CHANNELS 3 Zrotation Yrotation Xrotation
								JOINT LeftFingerBase
								{
									OFFSET 0.000000 0.000000 0.000000
									CHANNELS 3 Zrotation Yrotation Xrotation
									JOINT LeftHandIndex1
									{
										OFFSET 0.715260 -0.000000 -0.000000
										CHANNELS 3 Zrotation Yrotation Xrotation
										End Site
										{
											OFFSET 0.000000 0.000000 0.000000
										}
									}
								}
								JOINT LThumb
								{
									OFFSET 0.000000 0.000000 0.000000
									CHANNELS 3 Zrotation Yrotation Xrotation
									End Site
									{
										OFFSET 0.000000 0.000000 0.000000
									}
								}
							}
						}
					}
				}
				JOINT RightShoulder
				{
					OFFSET 0.000000 0.000000 0.000000
					CHANNELS 3 Zrotation Yrotation Xrotation
					JOINT RightArm
					{
						OFFSET -3.136600 1.374050 -0.404650
						CHANNELS 3 Zrotation Yrotation Xrotation
						JOINT RightForeArm
						{
							OFFSET -5.241900 -0.000000 -0.000000
							CHANNELS 3 Zrotation Yrotation Xrotation
							JOINT RightHand
							{
								OFFSET -3.444170 -0.000000 -0.000000
								CHANNELS 3 Zrotation Yrotation Xrotation
								JOINT RightFingerBase
								{
									OFFSET 0.000000 0.000000 0.000000
									CHANNELS 3 Zrotation Yrotation Xrotation
									JOINT RightHandIndex1
									{
										OFFSET -0.622530 -0.000000 -0.000000
										CHANNELS 3 Zrotation Yrotation Xrotation
										End Site
										{
											OFFSET 0.000000 0.000000 0.000000
										}
									}
								}
								JOINT RThumb
								{
									OFFSET 0.000000 0.000000 0.000000
									CHANNELS 3 Zrotation Yrotation Xrotation
									End Site
									{
										OFFSET 0.000000 0.000000 0.000000
									}
								}
							}
						}
					}
				}
			}
		}
	}
}
MOTION
Frames: 12
Frame Time: 0.008333
3.450303 17.677152 0.387081 -155.162994 87.843419 -155.735622 -1.092405 4.289978 3.481043 -11.958339 -4.262674 -5.647755 0.391799 5.006562 16.946390 1.066108 -6.262454 -0.891444 0.136700 -2.383300 -6.566300 -3.247899 -6.010121 2.919859 22.350414 1.589147 -2.408277 0.066366 -4.351087 18.683039 -0.523549 -1.441779 -13.345350 -0.054300 1.503800 -4.136300 3.969260 -0.370683 -2.093982 -0.194237 -0.439937 0.023339 -1.025688 -0.397867 -2.837148 -4.037841 -5.680124 -14.850771 4.109414 -7.461860 12.320341 1.464000 -3.478600 5.856700 -1.546753 -1.469809 7.117817 63.446206 -46.007473 -85.609548 30.722203 -47.587582 -15.896823 -0.182790 -2.643777 -100.142811 -6.806546 12.301064 -0.861300 -7.125000 0.000000 0.000000 -27.121100 40.096500 3.586900 3.120531 1.071349 -0.513045 -58.184606 49.170164 -73.281095 -30.528019 44.102480 -12.397384 -0.645959 1.002117 -41.114224 3.170114 18.173865 0.877300 7.125000 0.000000 0.000000 20.203400 -13.647600 15.908500 
3.450806 17.678158 0.387081 -155.350669 87.833576 -155.934050 -1.091842 4.294436 3.483581 -11.956868 -4.284397 -5.636331 0.394148 5.013714 16.963851 1.070546 -6.297296 -0.883107 0.120900 -2.241300 -6.173000 -3.248541 -6.006743 2.917936 22.344835 1.579273 -2.392088 0.066593 -4.347060 18.676301 -0.523952 -1.435202 -13.336172 -0.052500 1.478700 -4.067000 3.973012 -0.381014 -2.075187 -0.187298 -0.453325 0.019377 -1.011722 -0.404714 -2.857424 -4.006228 -5.639501 -14.849866 4.140601 -7.412224 12.225947 1.475200 -3.451800 5.816200 -1.534983 -1.468893 7.097549 63.557988 -45.889229 -85.696624 30.792014 -47.656235 -15.957364 -0.187836 -2.641294 -100.048960 -6.767388 12.355963 -0.857700 -7.125000 0.000000 0.000000 -27.111800 40.148500 3.547100 3.114825 1.073516 -0.499336 -58.380600 49.146857 -73.522161 -30.625999 44.178770 -12.459454 -0.647253 1.000284 -41.132600 3.091434 18.126389 0.852400 7.125000 0.000000 0.000000 20.159700 -13.690000 15.849700 
3.450605 17.678058 0.386779 -156.277601 87.855685 -156.841758 -1.091956 4.310716 3.490128 -12.009313 -4.326565 -5.649258 0.391732 5.016038 16.961050 1.063471 -6.248506 -0.889571 0.122500 -2.256500 -6.215000 -3.244536 -5.987723 2.910906 22.297806 1.591705 -2.401611 0.066418 -4.342589 18.668900 -0.536063 -1.385629 -13.340580 -0.044600 1.362800 -3.747600 3.941404 -0.374529 -2.076135 -0.184283 -0.448768 0.000000 -0.986244 -0.398387 -2.887526 -4.010524 -5.611296 -14.834753 4.170873 -7.374470 12.144176 1.490900 -3.432900 5.779900 -1.525805 -1.463410 7.087634 63.688459 -45.816312 -85.831593 30.885274 -47.739293 -16.028992 -0.184992 -2.637386 -99.934556 -6.680722 12.296693 -0.836700 -7.125000 0.000000 0.000000 -27.024400 40.110100 3.561700 3.109475 1.074877 -0.490932 -58.591920 49.106150 -73.766125 -30.669183 44.212434 -12.484850 -0.650117 0.999525 -41.160801 3.043666 18.204826 0.842800 7.125000 0.000000 0.000000 20.123900 -13.616500 15.851100 
3.451108 17.676447 0.386376 -156.599059 87.836645 -157.163863 -1.092091 4.318097 3.493764 -12.011540 -4.330722 -5.640216 0.387256 5.006744 16.929421 1.061639 -6.242050 -0.868543 0.127400 -2.300800 -6.337600 -3.243684 -5.981587 2.907662 22.297768 1.570712 -2.394332 0.065912 -4.340968 18.669758 -0.542769 -1.378763 -13.385657 -0.043800 1.351300 -3.716000 3.942826 -0.388898 -2.081890 -0.171569 -0.470075 -0.004203 -0.955843 -0.408360 -2.897529 -4.022499 -5.601234 -14.822745 4.173073 -7.355260 12.011996 1.496100 -3.426200 5.723700 -1.511601 -1.465630 7.065188 63.725939 -45.673270 -85.817982 30.973368 -47.805222 -16.094343 -0.180714 -2.638783 -99.926066 -6.626908 12.268474 -0.823500 -7.125000 0.000000 0.000000 -26.970300 40.093400 3.565400 3.104298 1.076506 -0.475828 -58.836509 49.072980 -74.043410 -30.717204 44.254155 -12.515471 -0.651293 1.000227 -41.214526 3.070745 18.257361 0.853000 7.125000 0.000000 0.000000 20.135600 -13.568700 15.883600 
3.454128 17.676950 0.386980 -157.702717 87.850302 -158.255445 -1.089726 4.339738 3.502257 -12.053330 -4.317397 -5.637568 0.382924 4.997394 16.892553 1.070249 -6.320200 -0.826583 0.124500 -2.274500 -6.264800 -3.238106 -5.959689 2.897119 22.243721 1.557049 -2.389546 0.064139 -4.337155 18.667678 -0.562371 -1.311950 -13.421332 -0.037700 1.252700 -3.444300 3.891854 -0.391983 -2.120762 -0.168857 -0.482367 0.000562 -0.914900 -0.409650 -2.880426 -4.008825 -5.594058 -14.768034 4.156669 -7.339932 11.825772 1.490100 -3.422700 5.636100 -1.493624 -1.464946 7.034597 63.765872 -45.497380 -85.777779 31.042274 -47.863628 -16.152887 -0.185771 -2.636018 -100.035856 -6.523417 12.392203 -0.811100 -7.125000 0.000000 0.000000 -26.933100 40.204500 3.478300 3.096271 1.084712 -0.458367 -59.048884 48.978471 -74.211836 -30.748660 44.278697 -12.532977 -0.651881 0.998663 -41.278242 3.021506 18.210973 0.836400 7.125000 0.000000 0.000000 20.109100 -13.610400 15.840600 
3.455940 17.678360 0.387685 -158.029036 87.828722 -158.580561 -1.089090 4.348131 3.506927 -12.051324 -4.286310 -5.630237 0.377774 4.982097 16.845384 1.073378 -6.359013 -0.774138 0.120100 -2.234200 -6.153200 -3.237863 -5.954004 2.893507 22.243546 1.533377 -2.380032 0.064198 -4.334204 18.665605 -0.552357 -1.351868 -13.411473 -0.040000 1.290700 -3.549100 3.886388 -0.406002 -2.130730 -0.156513 -0.503113 -0.010869 -0.884829 -0.419775 -2.902208 -3.967511 -5.567137 -14.692286 4.120835 -7.301502 11.705359 1.474200 -3.407400 5.569600 -1.477963 -1.466030 7.008356 63.751152 -45.342859 -85.623884 31.098734 -47.900000 -16.186929 -0.175133 -2.649521 -100.064957 -6.624396 12.271550 -0.821000 -7.125000 0.000000 0.000000 -26.960400 40.095200 3.562500 3.091547 1.089732 -0.446018 -59.272054 48.920741 -74.371209 -30.745144 44.277471 -12.525163 -0.654512 0.996016 -41.340035 2.924482 18.265041 0.811100 7.125000 0.000000 0.000000 20.044800 -13.557000 15.807000 
3.457450 17.678964 0.387181 -157.438172 87.787819 -157.979055 -1.092002 4.338886 3.504795 -12.009599 -4.292718 -5.604031 0.370202 4.958043 16.780844 1.069268 -6.342625 -0.720130 0.105200 -2.091600 -5.758800 -3.242068 -5.965434 2.897014 22.289986 1.511818 -2.395830 0.065087 -4.337008 18.669934 -0.534473 -1.426889 -13.405855 -0.050700 1.452900 -3.995800 3.957070 -0.408687 -2.160961 -0.148272 -0.502817 -0.021598 -0.903937 -0.423843 -2.913845 -3.972754 -5.560551 -14.591879 4.134845 -7.290622 11.563608 1.485500 -3.404700 5.494500 -1.467400 -1.467674 6.997130 63.766433 -45.241417 -85.561211 31.225429 -47.981234 -16.267145 -0.158544 -2.669849 -100.029214 -6.798466 12.038911 -0.836200 -7.125000 0.000000 0.000000 -27.001600 39.887100 3.721700 3.088577 1.085094 -0.438622 -59.522319 48.885538 -74.670042 -30.688442 44.239283 -12.489306 -0.652106 0.995646 -41.281987 2.965640 18.258847 0.822900 7.125000 0.000000 0.000000 20.070800 -13.562200 15.828000 
3.459162 17.679367 0.386376 -158.114905 87.822335 -158.667048 -1.090502 4.355415 3.512314 -12.059090 -4.271931 -5.559048 0.362651 4.940199 16.726053 1.063923 -6.306746 -0.729273 0.118200 -2.216600 -6.104500 -3.238162 -5.953730 2.890557 22.240045 1.462360 -2.407016 0.062527 -4.339149 18.681961 -0.523897 -1.473339 -13.402060 -0.063500 1.626500 -4.474400 3.944099 -0.375270 -2.143137 -0.151464 -0.459715 -0.035693 -0.896889 -0.399075 -2.947702 -4.034121 -5.575743 -14.540260 4.202676 -7.308873 11.452196 1.523300 -3.413800 5.446300 -1.461376 -1.464891 6.996041 63.870151 -45.195843 -85.734810 31.385180 -48.103740 -16.395656 -0.169374 -2.668341 -99.983714 -6.750910 12.181117 -0.836800 -7.125000 0.000000 0.000000 -27.015100 40.011300 3.632700 3.084194 1.082406 -0.433516 -59.722571 48.841629 -74.937344 -30.647080 44.211675 -12.466546 -0.645841 0.996269 -41.180040 3.075650 18.112286 0.847500 7.125000 0.000000 0.000000 20.151100 -13.699100 15.837800 
3.461477 17.678460 0.386074 -159.787142 87.874334 -160.349285 -1.083761 4.390442 3.526213 -12.150727 -4.235149 -5.530949 0.356871 4.928861 16.681558 1.070633 -6.358396 -0.743533 0.126300 -2.291200 -6.311200 -3.227159 -5.921954 2.875817 22.133010 1.411956 -2.411170 0.053440 -4.344489 18.711239 -0.544827 -1.378171 -13.388804 -0.054500 1.506700 -4.144200 3.884221 -0.344866 -2.147209 -0.169488 -0.427010 -0.037661 -0.885822 -0.374195 -2.949827 -4.065801 -5.597941 -14.556234 4.253574 -7.339322 11.395047 1.546200 -3.426900 5.431200 -1.453541 -1.458253 6.983995 64.027707 -45.120235 -85.900060 31.482483 -48.192136 -16.472535 -0.168705 -2.663216 -99.967574 -6.637225 12.157152 -0.813100 -7.125000 0.000000 0.000000 -26.919100 40.000800 3.625000 3.076452 1.087219 -0.426056 -59.868532 48.773759 -75.126811 -30.638654 44.205488 -12.462871 -0.642461 0.996042 -41.162075 3.122375 17.997037 0.855000 7.125000 0.000000 0.000000 20.189800 -13.806300 15.823400 
3.463591 17.678662 0.386477 -161.537139 87.913814 -162.078335 -1.074058 4.423705 3.537824 -12.238995 -4.218306 -5.553071 0.353410 4.926296 16.660893 1.074434 -6.396832 -0.731312 0.125800 -2.286800 -6.298900 -3.212839 -5.887523 2.860548 22.035500 1.362088 -2.441488 0.046521 -4.347014 18.730784 -0.552358 -1.321761 -13.333876 -0.051100 1.459100 -4.013000 3.811338 -0.332531 -2.191268 -0.181919 -0.421701 -0.040674 -0.855984 -0.362890 -2.933501 -4.051366 -5.609094 -14.579989 4.287117 -7.357551 11.304284 1.555600 -3.433400 5.400800 -1.442396 -1.452865 6.962985 64.131633 -44.994864 -85.868659 31.557545 -48.256749 -16.516951 -0.149791 -2.660695 -99.943917 -6.494345 11.915887 -0.769200 -7.125000 0.000000 0.000000 -26.721400 39.813500 3.729200 3.067186 1.096616 -0.414860 -59.991639 48.695109 -75.234888 -30.674100 44.230250 -12.481958 -0.646928 0.994710 -41.198465 3.013302 18.089278 0.828700 7.125000 0.000000 0.000000 20.115100 -13.719000 15.796400 
3.464095 17.678964 0.386376 -162.246886 87.928918 -162.769327 -1.069187 4.436231 3.541140 -12.272695 -4.187134 -5.591820 0.352356 4.924882 16.651971 1.075494 -6.422129 -0.682154 0.119600 -2.229300 -6.139900 -3.206024 -5.871570 2.853908 22.004507 1.367082 -2.461734 0.045114 -4.349544 18.740670 -0.547993 -1.343825 -13.335988 -0.053900 1.497500 -4.118800 3.797878 -0.319264 -2.215832 -0.177305 -0.408614 -0.042389 -0.835265 -0.353692 -2.927460 -4.022929 -5.622022 -14.574405 4.281607 -7.373357 11.151863 1.548100 -3.442200 5.337500 -1.428757 -1.452250 6.941982 64.203215 -44.865566 -85.908154 31.654525 -48.335986 -16.598074 -0.157427 -2.652977 -99.986219 -6.340083 12.061842 -0.749300 -7.125000 0.000000 0.000000 -26.654800 39.949500 3.619900 3.061098 1.103433 -0.401811 -60.114520 48.628515 -75.371321 -30.722952 44.269357 -12.513632 -0.649460 0.997526 -41.208537 3.056140 18.203237 0.846400 7.125000 0.000000 0.000000 20.131500 -13.616200 15.858100 
3.465403 17.678863 0.386074 -160.674750 87.863589 -161.197338 -1.079726 4.406891 3.531544 -12.176185 -4.195312 -5.582426 0.352114 4.918116 16.642246 1.070577 -6.393830 -0.632897 0.111600 -2.153900 -5.931200 -3.221258 -5.901258 2.865951 22.108290 1.388810 -2.448396 0.045847 -4.355747 18.749617 -0.555563 -1.338405 -13.399153 -0.051800 1.469200 -4.040800 3.905671 -0.318988 -2.217739 -0.157989 -0.397886 -0.042881 -0.868365 -0.357274 -2.935160 -3.999264 -5.627177 -14.613492 4.279379 -7.379773 11.063043 1.541800 -3.444800 5.308700 -1.414204 -1.460786 6.913783 64.369088 -44.750929 -86.120080 31.623993 -48.345193 -16.597374 -0.175334 -2.651048 -99.998385 -6.396919 12.253736 -0.773100 -7.125000 0.000000 0.000000 -26.769100 40.101100 3.528200 3.056096 1.101332 -0.389562 -60.226840 48.559767 -75.558966 -30.767308 44.307169 -12.548666 -0.644752 1.001073 -41.154374 3.206976 18.081157 0.883100 7.125000 0.000000 0.000000 20.234400 -13.733900 15.896800 
